<?xml version="1.0" encoding="UTF-8" standalone="no"?>
<!-- Created with Inkscape (http://www.inkscape.org/) -->

<svg
   version="1.1"
   id="svg1"
   width="296.34668"
   height="171.10667"
   viewBox="0 0 296.34668 171.10667"
   xmlns="http://www.w3.org/2000/svg"
   xmlns:svg="http://www.w3.org/2000/svg">
  <defs
     id="defs1" />
  <g
     id="g1">
    <g
       id="group-R5">
      <path
         id="path2"
         d="M 61.0313,1091.89 C 60.0977,1049 59.4766,1006.1 59.4766,963.207 c 0,-45.078 0.6211,-59.375 2.1797,-87.969 l -1.8672,-1.871 c -25.8008,0 -32.0196,0 -55.33597,-0.929 l -1.55469,1.863 c 1.24609,32.328 1.86719,51.289 1.86719,87.972 0,79.267 -0.9336,95.117 -2.79297,128.687 l 1.23828,1.87 c 22.38286,-0.31 29.52736,-0.31 56.26566,0.93 l 1.5547,-1.87"
         style="fill:#ffffff;fill-opacity:1;fill-rule:nonzero;stroke:none"
         transform="matrix(0.13333333,0,0,-0.13333333,0,171.10667)" />
      <path
         id="path3"
         d="m 250.32,913.16 -2.172,-37.922 -2.484,-1.871 H 108.891 l -1.551,1.242 c 0.93,32.641 1.551,52.231 1.551,91.391 0,83.31 -0.621,94.81 -2.485,124.96 l 1.864,1.87 h 136.46 l 1.555,-1.24 -2.176,-36.07 -1.55,-1.86 c -37.618,0.93 -44.766,0.93 -79.895,0.93 v -49.42 l 75.227,1.24 1.55,-1.86 -1.859,-35.132 -2.184,-1.863 h -72.734 l 0.621,-54.395 c 39.789,0 48.496,0.313 85.172,2.172 l 1.863,-2.172"
         style="fill:#ffffff;fill-opacity:1;fill-rule:nonzero;stroke:none"
         transform="matrix(0.13333333,0,0,-0.13333333,0,171.10667)" />
      <path
         id="path4"
         d="m 425.012,913.16 -2.176,-37.922 -2.484,-1.871 H 283.578 l -1.551,1.242 c 0.934,32.641 1.551,52.231 1.551,91.391 0,83.31 -0.617,94.81 -2.488,124.96 l 1.871,1.87 h 136.457 l 1.555,-1.24 -2.172,-36.07 -1.559,-1.86 c -37.613,0.93 -44.762,0.93 -79.887,0.93 v -49.42 l 75.223,1.24 1.555,-1.86 -1.863,-35.132 -2.18,-1.863 h -72.735 l 0.618,-54.395 c 39.793,0 48.496,0.313 85.172,2.172 l 1.867,-2.172"
         style="fill:#ffffff;fill-opacity:1;fill-rule:nonzero;stroke:none"
         transform="matrix(0.13333333,0,0,-0.13333333,0,171.10667)" />
      <path
         id="path5"
         d="m 599.695,913.16 -2.172,-37.922 -2.484,-1.871 H 458.266 l -1.551,1.242 c 0.93,32.641 1.551,52.231 1.551,91.391 0,83.31 -0.621,94.81 -2.489,124.96 l 1.868,1.87 h 136.457 l 1.558,-1.24 -2.18,-36.07 -1.55,-1.86 c -37.614,0.93 -44.762,0.93 -79.887,0.93 v -49.42 l 75.223,1.24 1.55,-1.86 -1.859,-35.132 -2.184,-1.863 h -72.73 l 0.617,-54.395 c 39.785,0 48.496,0.313 85.172,2.172 l 1.863,-2.172"
         style="fill:#ffffff;fill-opacity:1;fill-rule:nonzero;stroke:none"
         transform="matrix(0.13333333,0,0,-0.13333333,0,171.10667)" />
      <path
         id="path6"
         d="m 174.457,738.926 h 14.066 C 156.641,654.043 125.219,570.094 93.3242,486.141 c -16.8789,-45.016 -39.8633,-57.2 -64.7148,-57.2 -7.9727,0 -16.418,2.344 -21.1094,4.211 v 12.188 c 5.1602,-2.801 14.5391,-3.75 21.1094,-3.75 23.4453,0 40.8008,15.484 52.9922,48.312 l 8.9101,23.922 C 60.0313,588.383 30.0156,663.426 0,738.926 h 14.0664 c 27.2031,-69.418 55.3438,-138.821 82.543,-208.223 26.2616,69.402 52.0586,138.805 77.8476,208.223"
         style="fill:#ffffff;fill-opacity:1;fill-rule:nonzero;stroke:none"
         transform="matrix(0.13333333,0,0,-0.13333333,0,171.10667)" />
      <path
         id="path7"
         d="m 384.105,627.773 c 0,80.668 -42.667,102.711 -89.57,102.711 -46.898,0 -90.98,-22.043 -90.98,-102.711 0,-79.722 44.082,-101.761 90.98,-101.761 46.903,0 89.57,22.039 89.57,101.761 z m 13.137,0 c 0,-93.324 -55.804,-113.488 -102.707,-113.488 -47.367,0 -104.113,20.164 -104.113,113.488 0,94.274 56.746,114.911 104.113,114.911 46.903,0 102.707,-20.637 102.707,-114.911"
         style="fill:#ffffff;fill-opacity:1;fill-rule:nonzero;stroke:none"
         transform="matrix(0.13333333,0,0,-0.13333333,0,171.10667)" />
      <path
         id="path8"
         d="m 595.168,738.926 h 13.129 V 608.078 c 0,-60.496 -33.293,-93.793 -91.449,-93.793 -58.625,0 -91.453,33.297 -91.453,93.793 v 130.848 h 13.136 V 607.148 c 0,-53.003 27.199,-81.136 78.317,-81.136 50.183,0 78.32,28.133 78.32,81.136 v 131.778"
         style="fill:#ffffff;fill-opacity:1;fill-rule:nonzero;stroke:none"
         transform="matrix(0.13333333,0,0,-0.13333333,0,171.10667)" />
      <path
         id="path9"
         d="m 828.27,662.016 v -144.45 h -13.133 v 144.45 c 0,43.613 -21.574,67.519 -71.754,67.519 -30.488,0 -60.028,-9.371 -82.07,-20.16 V 517.566 H 648.18 v 199.317 c 21.101,11.719 56.746,25.801 96.609,25.801 52.52,0 83.481,-24.852 83.481,-80.668"
         style="fill:#ffffff;fill-opacity:1;fill-rule:nonzero;stroke:none"
         transform="matrix(0.13333333,0,0,-0.13333333,0,171.10667)" />
      <path
         id="path10"
         d="m 1029.95,677.031 c 0,17.813 -11.72,53.453 -72.684,53.453 -34.243,0 -84.418,-11.718 -84.418,-100.832 0,-83.933 46.429,-96.601 86.285,-96.601 23.918,0 48.777,5.625 70.817,15.945 z m 13.13,-0.484 V 502.566 c 0,-34.242 -15.48,-74.109 -96.139,-74.109 -22.503,0 -42.679,3.281 -58.148,7.039 v 12.188 c 15,-3.282 34.699,-6.559 57.219,-6.559 71.278,0 83.938,31.898 83.938,61.441 v 33.282 c -22.04,-9.836 -46.43,-15.469 -70.817,-15.469 -44.547,0 -98.953,16.418 -98.953,109.273 0,99.43 59.562,113.032 97.086,113.032 78.314,0 85.814,-50.653 85.814,-66.137"
         style="fill:#ffffff;fill-opacity:1;fill-rule:nonzero;stroke:none"
         transform="matrix(0.13333333,0,0,-0.13333333,0,171.10667)" />
      <path
         id="path11"
         d="m 921.266,1098.13 c 0,0 229.504,91.27 472.044,-93.89 0,0 -62.6,-93.888 -78.24,-179.951 0,0 -161.7,292.091 -393.804,273.841"
         style="fill:#ffffff;fill-opacity:1;fill-rule:nonzero;stroke:none"
         transform="matrix(0.13333333,0,0,-0.13333333,0,171.10667)" />
      <path
         id="path12"
         d="m 1755.81,1283.29 c 0,0 -417.27,-109.54 -448.57,-769.345 0,0 174.74,-99.996 187.77,-141.281 0,0 -135.61,571.594 260.8,910.626"
         style="fill:#ffffff;fill-opacity:1;fill-rule:nonzero;stroke:none"
         transform="matrix(0.13333333,0,0,-0.13333333,0,171.10667)" />
      <path
         id="path13"
         d="m 1740.17,1235.04 c 32.29,8.19 59.2,-38.04 60.66,-62.75 4.03,-67.52 -21.55,-140.99 -67.51,-199.837 -81.7,-104.582 -184.57,-133.82 -196.58,-133.82 69.44,-10.656 146.41,8.793 186.64,28.269 72.08,34.899 129.51,98.996 160.35,172.478 19.64,46.81 41.25,120.23 12.19,168.66 -31.2,51.99 -107.12,39.34 -155.75,27"
         style="fill:#ffffff;fill-opacity:1;fill-rule:nonzero;stroke:none"
         transform="matrix(0.13333333,0,0,-0.13333333,0,171.10667)" />
      <path
         id="path14"
         d="m 168.367,198.371 c 0,86.762 -45.027,98.016 -77.3904,98.016 -50.6407,0 -68.0039,-24.856 -68.0039,-48.297 V 117.238 c 19.2304,-8.449 41.75,-12.679 64.7226,-12.679 50.1757,0 80.6717,23.472 80.6717,93.812 z m 23.442,-0.473 c 0,-94.726 -55.34,-115.3589 -104.1137,-115.3589 -22.9726,0 -45.0156,4.2109 -64.7226,11.25 L 22.9727,0 H 0 v 247.148 c 0,17.34 7.97266,70.817 90.9766,70.817 38.4574,0 100.8324,-15.949 100.8324,-120.067"
         style="fill:#ffffff;fill-opacity:1;fill-rule:nonzero;stroke:none"
         transform="matrix(0.13333333,0,0,-0.13333333,0,171.10667)" />
      <path
         id="path15"
         d="M 242.945,280.922 V 86.2813 H 219.973 V 295.922 c 13.129,5.625 54.867,21.105 106.922,21.558 v -22.503 c -35.645,-0.934 -66.125,-8.907 -83.95,-14.055"
         style="fill:#ffffff;fill-opacity:1;fill-rule:nonzero;stroke:none"
         transform="matrix(0.13333333,0,0,-0.13333333,0,171.10667)" />
      <path
         id="path16"
         d="m 511.688,200.25 c 0,71.75 -33.293,96.137 -83.485,96.137 -49.707,0 -83.473,-24.387 -83.473,-96.137 0,-71.762 33.766,-96.141 83.473,-96.141 50.192,0 83.485,24.379 83.485,96.141 z m 22.976,0 c 0,-96.621 -57.687,-117.7109 -106.461,-117.7109 -48.773,0 -106.457,21.0899 -106.457,117.7109 0,96.605 57.684,117.715 106.457,117.715 48.774,0 106.461,-21.11 106.461,-117.715"
         style="fill:#ffffff;fill-opacity:1;fill-rule:nonzero;stroke:none"
         transform="matrix(0.13333333,0,0,-0.13333333,0,171.10667)" />
      <path
         id="path17"
         d="M 594.703,334.375 V 313.75 h 67.524 V 293.105 H 594.703 V 86.2813 H 571.25 V 293.105 h -36.109 v 20.645 h 36.109 v 20.625 c 0,74.098 50.652,74.566 67.535,74.566 9.375,0 17.817,-1.406 24.852,-3.281 v -20.637 c -6.094,1.407 -13.129,2.348 -21.102,2.348 -18.765,0 -47.832,0 -47.832,-52.996"
         style="fill:#ffffff;fill-opacity:1;fill-rule:nonzero;stroke:none"
         transform="matrix(0.13333333,0,0,-0.13333333,0,171.10667)" />
      <path
         id="path18"
         d="m 679.137,207.289 h 151.484 c 0,11.25 -2.812,88.164 -75.508,88.164 -49.246,0 -73.633,-32.824 -75.976,-88.164 z m 175.406,-8.449 c 0,-10.32 -0.48,-11.719 -0.48,-12.192 H 679.137 c 0.465,-7.968 1.879,-14.539 4.222,-20.16 6.563,-44.097 37.524,-60.976 81.606,-60.976 27.668,0 55.332,5.629 74.098,15.949 V 97.5391 c -21.11,-9.8594 -50.192,-14.5274 -75.977,-14.5274 -51.594,0 -107.871,22.0393 -107.871,112.5473 0,36.101 11.265,121.921 101.308,121.921 97.071,0 98.02,-103.628 98.02,-118.64"
         style="fill:#ffffff;fill-opacity:1;fill-rule:nonzero;stroke:none"
         transform="matrix(0.13333333,0,0,-0.13333333,0,171.10667)" />
      <path
         id="path19"
         d="m 1030.42,145.371 c 0,-36.582 -28.14,-62.8319 -82.545,-62.8319 -30.016,0 -53.465,7.4922 -71.277,16.4023 V 123.34 c 20.625,-10.801 44.547,-17.828 70.332,-17.828 34.711,0 60.03,13.136 60.03,39.859 0,68 -128.968,29.09 -128.968,109.277 0,32.352 22.043,63.317 77.379,63.317 24.391,0 45.029,-6.563 61.439,-13.606 v -22.988 c -14.53,7.043 -34.705,14.082 -59.091,14.082 -30.016,0 -56.27,-11.254 -56.27,-40.805 0,-55.328 128.971,-21.109 128.971,-109.277"
         style="fill:#ffffff;fill-opacity:1;fill-rule:nonzero;stroke:none"
         transform="matrix(0.13333333,0,0,-0.13333333,0,171.10667)" />
      <path
         id="path20"
         d="m 1206.77,145.371 c 0,-36.582 -28.14,-62.8319 -82.54,-62.8319 -30.01,0 -53.47,7.4922 -71.28,16.4023 V 123.34 c 20.62,-10.801 44.55,-17.828 70.34,-17.828 34.7,0 60.03,13.136 60.03,39.859 0,68 -128.97,29.09 -128.97,109.277 0,32.352 22.04,63.317 77.37,63.317 24.39,0 45.03,-6.563 61.45,-13.606 v -22.988 c -14.54,7.043 -34.71,14.082 -59.1,14.082 -30.01,0 -56.27,-11.254 -56.27,-40.805 0,-55.328 128.97,-21.109 128.97,-109.277"
         style="fill:#ffffff;fill-opacity:1;fill-rule:nonzero;stroke:none"
         transform="matrix(0.13333333,0,0,-0.13333333,0,171.10667)" />
      <path
         id="path21"
         d="m 1238.69,313.75 h 22.98 V 86.2813 h -22.98 z m -1.41,76.898 h 25.8 v -34.695 h -25.8 v 34.695"
         style="fill:#ffffff;fill-opacity:1;fill-rule:nonzero;stroke:none"
         transform="matrix(0.13333333,0,0,-0.13333333,0,171.10667)" />
      <path
         id="path22"
         d="m 1479.27,200.25 c 0,71.75 -33.29,96.137 -83.48,96.137 -49.71,0 -83.47,-24.387 -83.47,-96.137 0,-71.762 33.76,-96.141 83.47,-96.141 50.19,0 83.48,24.379 83.48,96.141 z m 22.98,0 c 0,-96.621 -57.68,-117.7109 -106.46,-117.7109 -48.78,0 -106.46,21.0899 -106.46,117.7109 0,96.605 57.68,117.715 106.46,117.715 48.78,0 106.46,-21.11 106.46,-117.715"
         style="fill:#ffffff;fill-opacity:1;fill-rule:nonzero;stroke:none"
         transform="matrix(0.13333333,0,0,-0.13333333,0,171.10667)" />
      <path
         id="path23"
         d="M 1714.24,234.488 V 86.2813 h -23.45 V 234.488 c 0,33.282 -14.07,60.032 -67.06,60.032 -27.67,0 -53,-7.04 -72.23,-14.54 V 86.2813 h -22.97 V 293.574 c 15.94,8.442 53.45,24.391 97.55,24.391 55.8,0 88.16,-28.137 88.16,-83.477"
         style="fill:#ffffff;fill-opacity:1;fill-rule:nonzero;stroke:none"
         transform="matrix(0.13333333,0,0,-0.13333333,0,171.10667)" />
      <path
         id="path24"
         d="m 1901.86,201.66 c -6.09,0.942 -26.73,4.219 -57.68,4.219 -28.61,0 -83.02,-6.559 -83.02,-52.059 0,-41.742 43.62,-49.711 71.76,-49.711 27.68,0 68.94,7.5 68.94,48.782 z m 22.98,20.629 v -69.398 c 0,-61.9222 -63.31,-69.8793 -91.92,-69.8793 -29.54,0 -94.73,9.3672 -94.73,70.8083 0,70.801 87.69,73.629 108.8,73.629 30.49,0 46.9,-3.277 54.41,-4.687 0,47.84 -23.46,71.758 -75.05,71.758 -29.54,0 -53.93,-7.04 -64.72,-10.321 v 22.508 c 16.9,5.625 40.33,10.773 66.14,10.773 67.52,0 97.07,-33.281 97.07,-95.191"
         style="fill:#ffffff;fill-opacity:1;fill-rule:nonzero;stroke:none"
         transform="matrix(0.13333333,0,0,-0.13333333,0,171.10667)" />
      <path
         id="path25"
         d="M 1952.05,86.2813 V 401.441 h 23.45 V 86.2813 h -23.45"
         style="fill:#ffffff;fill-opacity:1;fill-rule:nonzero;stroke:none"
         transform="matrix(0.13333333,0,0,-0.13333333,0,171.10667)" />
      <path
         id="path26"
         d="m 2155.59,145.371 c 0,-36.582 -28.13,-62.8319 -82.53,-62.8319 -30.02,0 -53.48,7.4922 -71.29,16.4023 V 123.34 c 20.63,-10.801 44.55,-17.828 70.34,-17.828 34.71,0 60.03,13.136 60.03,39.859 0,68 -128.97,29.09 -128.97,109.277 0,32.352 22.04,63.317 77.38,63.317 24.39,0 45.03,-6.563 61.44,-13.606 v -22.988 c -14.53,7.043 -34.7,14.082 -59.09,14.082 -30.02,0 -56.27,-11.254 -56.27,-40.805 0,-55.328 128.96,-21.109 128.96,-109.277"
         style="fill:#ffffff;fill-opacity:1;fill-rule:nonzero;stroke:none"
         transform="matrix(0.13333333,0,0,-0.13333333,0,171.10667)" />
      <path
         id="path27"
         d="m 2198.54,116.578 c 0,0 6.6,-23.8788 7.44,-27.2264 2.14,7.8984 4.27,13.9374 8.18,27.2264 l 0.37,0.281 h 6.5 l 0.37,-0.371 c 0.09,-2.879 0.93,-27.9685 1.21,-30.3864 l -0.28,-0.3711 h -1.11 c -1.21,0 -2.32,-0.0899 -3.53,-0.0899 l -0.38,0.3711 c 0,5.1992 -0.27,23.5083 -0.27,27.4103 -1.3,-4.922 -8.55,-27.3204 -8.55,-27.3204 l -0.37,-0.3711 c -1.3,0 -3.16,0 -5.02,-0.0899 l -0.28,0.3711 c -0.56,1.668 -6.23,20.0663 -7.9,27.5083 -0.09,-4.93 -0.75,-22.3989 -0.75,-27.4184 l -0.27,-0.3711 c -1.86,0 -2.33,0 -4.09,-0.0899 l -0.37,0.3711 0.37,4.0899 c 0.28,3.3398 0.65,12.4494 1.39,26.2964 l 0.37,0.461 h 6.7 z m -19.6,-30.7577 h -1.21 c -1.12,0 -2.32,-0.0898 -3.44,-0.0898 l -0.37,0.2812 c 0.09,2.7891 0.19,6.2266 0.19,8.7383 v 18.391 h -2.14 c -3.16,0 -4,0 -6.41,-0.09 l -0.37,0.277 c 0.09,1.391 0.09,1.762 0.09,3.16 l 0.37,0.371 h 22.02 l 0.28,-0.371 c 0,0 -0.09,-2.699 -0.09,-3.066 l -0.28,-0.281 h -8.46 c 0,-5.289 0.09,-26.9418 0.09,-26.9418 l -0.27,-0.3789"
         style="fill:#ffffff;fill-opacity:1;fill-rule:nonzero;stroke:none"
         transform="matrix(0.13333333,0,0,-0.13333333,0,171.10667)" />
    </g>
  </g>
</svg>
